<?xml version="1.0" encoding="UTF-8"?>
<svg id="Calque_1" data-name="Calque 1" xmlns="http://www.w3.org/2000/svg" viewBox="0 0 92.99 93">
  <defs>
    <style>
      .cls-1 {
        fill: #fff;
        stroke-width: 0px;
      }
    </style>
  </defs>
  <path class="cls-1" d="M57.51,27.2h7.02c.97,0,1.75-.79,1.75-1.75v-14.04c0-.97-.79-1.75-1.75-1.75h-10.53c-10.64,0-19.3,8.66-19.3,19.3v8.91h-12.28c-.97,0-1.75.79-1.75,1.75v13.9c0,.97.79,1.75,1.75,1.75h11.06v26.32c0,.97.79,1.75,1.75,1.75h14.65c.97,0,1.75-.79,1.75-1.75v-26.32h9.23c.8,0,1.5-.53,1.7-1.32l3.66-14.04c.14-.53.03-1.09-.31-1.52-.33-.43-.84-.69-1.38-.69h-12.28v-5.26c0-2.9,2.36-5.26,5.26-5.26h0v.02Z"/>
  <path class="cls-1" d="M57.88,90c.83,0,1.5.67,1.5,1.5s-.67,1.5-1.5,1.5H10.33c-2.84,0-5.43-1.16-7.3-3.04-1.87-1.87-3.03-4.46-3.03-7.29V10.34c0-2.84,1.16-5.43,3.03-7.3l.09-.08C4.99,1.13,7.54,0,10.33,0h4.22c.83,0,1.5.67,1.5,1.5s-.67,1.5-1.5,1.5h-4.22c-1.98,0-3.79.8-5.14,2.12-1.36,1.37-2.19,3.2-2.19,5.21v72.33c0,2.02.82,3.86,2.16,5.18,1.32,1.32,3.16,2.15,5.18,2.15h47.55,0Z"/>
  <path class="cls-1" d="M35.12,3c-.83,0-1.5-.67-1.5-1.5s.67-1.5,1.5-1.5h47.54c2.84,0,5.43,1.16,7.3,3.03l.08.09c1.82,1.87,2.95,4.42,2.95,7.21v72.33c0,2.84-1.16,5.42-3.04,7.3-1.88,1.88-4.46,3.04-7.3,3.04h-4.21c-.83,0-1.5-.67-1.5-1.5s.67-1.5,1.5-1.5h4.21c2.02,0,3.86-.82,5.18-2.15,1.33-1.33,2.16-3.16,2.16-5.18V10.34c0-1.98-.8-3.79-2.12-5.14-1.37-1.36-3.2-2.19-5.21-2.19h-47.55,0Z"/>
</svg>