<?xml version="1.0" encoding="UTF-8"?>
<svg id="Calque_1" data-name="Calque 1" xmlns="http://www.w3.org/2000/svg" viewBox="0 0 93.81 93.81">
  <defs>
    <style>
      .cls-1 {
        fill: #fff;
        stroke-width: 0px;
      }
    </style>
  </defs>
  <path class="cls-1" d="M71.91,0H21.89c-5.8,0-11.36,2.31-15.47,6.42C2.31,10.52,0,16.08,0,21.89v50.03c0,5.8,2.31,11.36,6.42,15.47,4.1,4.1,9.67,6.41,15.47,6.42h50.03c5.8,0,11.36-2.31,15.47-6.42s6.41-9.67,6.42-15.47V21.89c0-5.8-2.31-11.36-6.42-15.47-4.11-4.11-9.67-6.42-15.48-6.42ZM87.54,71.91c0,4.14-1.65,8.12-4.58,11.05s-6.91,4.58-11.05,4.58H21.89c-4.14,0-8.12-1.65-11.05-4.58s-4.58-6.91-4.58-11.05V21.89c0-4.14,1.65-8.12,4.58-11.05,2.93-2.93,6.91-4.58,11.05-4.58h50.03c4.14,0,8.12,1.65,11.05,4.58,2.93,2.93,4.58,6.91,4.58,11.05v50.03h-.01ZM46.9,25.01c-5.8,0-11.37,2.31-15.48,6.41-4.1,4.1-6.41,9.67-6.41,15.48s2.31,11.37,6.41,15.48c4.1,4.1,9.67,6.41,15.48,6.41s11.37-2.31,15.48-6.41c4.1-4.1,6.41-9.67,6.41-15.48s-2.31-11.36-6.42-15.47c-4.1-4.1-9.67-6.41-15.47-6.42h0ZM46.9,62.53c-4.15,0-8.12-1.65-11.05-4.58-2.94-2.93-4.58-6.91-4.58-11.05s1.65-8.12,4.58-11.05c2.93-2.94,6.91-4.58,11.05-4.58s8.12,1.65,11.05,4.58c2.94,2.93,4.58,6.91,4.58,11.05s-1.65,8.12-4.58,11.05-6.91,4.58-11.05,4.58h0ZM78.95,20.32c0,2.21-1.33,4.21-3.38,5.05-2.04.85-4.4.38-5.96-1.18s-2.03-3.92-1.18-5.96c.84-2.04,2.84-3.38,5.05-3.38,3.02,0,5.47,2.45,5.47,5.47h0Z"/>
</svg>