<?xml version="1.0" encoding="UTF-8"?>
<svg id="Calque_1" data-name="Calque 1" xmlns="http://www.w3.org/2000/svg" viewBox="0 0 93 93">
  <defs>
    <style>
      .cls-1 {
        fill: #000;
        stroke-width: 0px;
      }
    </style>
  </defs>
  <path class="cls-1" d="M57.88,90c.83,0,1.5.67,1.5,1.5s-.67,1.5-1.5,1.5H10.33c-2.84,0-5.43-1.16-7.3-3.04-1.87-1.87-3.03-4.46-3.03-7.29V10.34c0-2.84,1.16-5.43,3.03-7.3l.09-.08C4.99,1.13,7.54,0,10.33,0h4.22c.83,0,1.5.67,1.5,1.5s-.67,1.5-1.5,1.5h-4.22c-1.98,0-3.79.8-5.14,2.12-1.36,1.37-2.19,3.2-2.19,5.21v72.33c0,2.02.82,3.86,2.16,5.18,1.32,1.32,3.16,2.15,5.18,2.15h47.55,0ZM47.73,37.51l18.97-23.06c.27-.39.72-.65,1.23-.65h8.45c.34,0,.67.12.95.35.64.52.73,1.47.2,2.11l-24.11,29.32,22.07,31.26c.48.68.31,1.61-.36,2.09-.26.18-.56.27-.86.27h-11.48c-.54,0-1.01-.28-1.28-.71l-16.23-23-18.97,23.06c-.27.39-.72.65-1.23.65h-8.45c-.34,0-.67-.12-.95-.35-.64-.52-.73-1.47-.2-2.11l24.11-29.32-22.07-31.26c-.48-.68-.31-1.61.36-2.09.26-.18.56-.27.86-.27h11.48c.54,0,1.01.29,1.28.71l16.23,23h0ZM35.12,3c-.83,0-1.5-.67-1.5-1.5s.67-1.5,1.5-1.5h47.54c2.84,0,5.43,1.16,7.3,3.03l.08.09c1.82,1.87,2.95,4.42,2.95,7.21v72.33c0,2.84-1.16,5.42-3.04,7.3-1.88,1.88-4.46,3.04-7.3,3.04h-4.21c-.83,0-1.5-.67-1.5-1.5s.67-1.5,1.5-1.5h4.21c2.02,0,3.86-.82,5.18-2.15,1.33-1.33,2.16-3.16,2.16-5.18V10.34c0-1.98-.8-3.79-2.12-5.14-1.37-1.36-3.2-2.19-5.21-2.19h-47.55Z"/>
</svg>